# xmcd
#
# Track frame offsets: 
#        150
#        34237
#        68429
#        98472
#        128499
#        163275
#        197034
#        228175
#        253061
#        281501
#        306355
#        325490
#
# Disc length: 4664 seconds
#
# Revision: 0
# Processed by: cddbd v1.5.2PL0 Copyright (c) Steve Scherf et al.
# Submitted via: ExactAudioCopy v1.0b3
#
DISCID=a112360c
DTITLE=Various Artist - Laser Trance Vol. 1 - CD 2
DYEAR=1900
DGENRE=
TTITLE0=Markus Schulz - Fly To Colors (Gentix Rmx)
TTITLE1=Nenes and Pascal Feliz - Platinum
TTITLE2=John O'Callaghan Pres. Mannix - Pyramid
TTITLE3=The Sirius - Dreams, Signs and Orbits
TTITLE4=Carlos - Alanda (Leon Bolier Rmx)
TTITLE5=ATB - Feel Alive (Duende Mix)
TTITLE6=Fragma - Deeper (Duderstadt Uplifting Dub Edit)
TTITLE7=Simon Patterson - Bulldozzer
TTITLE8=Stoneface and Terminal - Inner Voice (Dub Mix)
TTITLE9=Terry Ferminal - Deep Inside (Re-Work)
TTITLE10=Cor Fijnman - Jaguar
TTITLE11=Sied Van Riel - Sigh
EXTD=
EXTT0=
EXTT1=
EXTT2=
EXTT3=
EXTT4=
EXTT5=
EXTT6=
EXTT7=
EXTT8=
EXTT9=
EXTT10=
EXTT11=
PLAYORDER=
